<svg width="100" height="100" viewBox="0 0 100 100" fill="none" xmlns="http://www.w3.org/2000/svg">
<circle cx="50" cy="50" r="50" fill="#F8F8F8"/>
<path d="M50.7051 27.2302L31.4343 63.1437C33.9858 63.0519 35.9732 63.2526 40.2415 61.1118L50.7513 41.3658L55.7487 50.3508C56.7326 48.1672 57.9501 46.5934 61.1385 46.2609L50.7051 27.2302Z" fill="#2D5CA0"/>
<path d="M50.4076 56.6849C50.4076 56.2985 50.2654 55.9279 50.0123 55.6547C49.7592 55.3814 49.416 55.2279 49.0581 55.2279C48.7001 55.2279 48.3569 55.3814 48.1038 55.6547C47.8507 55.9279 47.7085 56.2985 47.7085 56.6849C47.7085 57.0713 47.8507 57.4418 48.1038 57.7151C48.3569 57.9883 48.7001 58.1418 49.0581 58.1418C49.416 58.1418 49.7592 57.9883 50.0123 57.7151C50.2654 57.4418 50.4076 57.0713 50.4076 56.6849ZM20.2756 61.9563C30.8638 69.848 44.9769 61.1429 46.3835 58.7069C45.3604 56.3294 46.2706 54.2345 48.1478 53.5966C49.5484 53.0984 51.4635 53.8247 51.8962 55.8814C52.4306 58.8252 49.8848 60.0493 48.8699 60.0844C38.0441 70.5904 22.9461 66.7512 20.2756 61.9563Z" fill="#2D5CA0"/>
<path d="M58.5342 55.5354C57.9422 55.5224 55.4324 51.7499 58.4957 48.8866C60.0583 47.4821 62.1461 47.7101 63.5353 48.9146C65.3397 50.4178 66.0604 54.9706 61.7113 56.4641C58.9419 61.0563 55.0575 64.4447 50.3259 66.9186C41.5119 71.5272 33.8506 71.5206 27.1299 67.7486C32.6764 68.9748 37.9332 70.9494 50.0806 63.8812C53.303 61.8501 56.2278 59.0264 58.5342 55.5354ZM62.8169 52.3236C62.8169 51.2735 62.0284 50.4223 61.0557 50.4223C60.083 50.4223 59.2945 51.2735 59.2945 52.3236C59.2945 53.3736 60.083 54.2249 61.0557 54.2249C62.0284 54.2249 62.8169 53.3736 62.8169 52.3236Z" fill="#4994CE"/>
<path d="M76.8037 37.2503C76.8037 35.9568 75.8324 34.9083 74.6342 34.9083C73.4361 34.9083 72.4648 35.9568 72.4648 37.2503C72.4648 38.5438 73.4361 39.5924 74.6342 39.5924C75.8324 39.5924 76.8037 38.5438 76.8037 37.2503ZM39.3167 71.987C60.5703 71.7163 73.0552 47.2663 72.8701 42.4314C70.0734 41.1987 68.6146 37.7242 70.3974 34.5484C72.3177 31.2886 76.5152 30.9749 78.8056 34.2658C80.9764 37.8621 78.8848 41.141 76.8283 42.2906C75.6427 46.8395 74.2676 53.5776 68.1073 59.4839L73.7999 69.7972H65.948L63.0035 64.4993C50.305 74.2541 45.4058 73.2366 39.3167 71.987Z" fill="#76CEF0"/>
</svg>
